<svg width="80" height="66" viewBox="0 0 80 66" fill="none" xmlns="http://www.w3.org/2000/svg">
<rect x="3.99999" y="7.23078" width="71.4667" height="47.6375" rx="5.06667" fill="#576D7E" stroke="#576D7E" stroke-width="0.533333"/>
<path d="M3.99999 5.33334C3.99999 2.5351 6.26841 0.266667 9.06666 0.266667H31.2V17.8815C31.2 20.6798 28.9316 22.9482 26.1333 22.9482H9.06666C6.26841 22.9482 3.99999 20.6798 3.99999 17.8815V5.33334Z" fill="#576D7E" stroke="#576D7E" stroke-width="0.533333"/>
<path d="M37.866 7.25499C35.9993 7.25499 35.7327 0.290527 31.466 0.290527V11.3176H69.866V7.25499H37.866Z" fill="#576D7E" stroke="#576D7E" stroke-width="0.533333"/>
<path d="M9.06644 9.77199C9.06644 9.18288 9.544 8.70532 10.1331 8.70532H69.8664C70.4555 8.70532 70.9331 9.18289 70.9331 9.77199V15.0894H9.06644V9.77199Z" fill="#EFF3F5"/>
<path d="M6.39987 10.9326C6.39987 10.3435 6.87743 9.86597 7.46654 9.86597H72.5332C73.1223 9.86597 73.5999 10.3435 73.5999 10.9326V16.8304H6.39987V10.9326Z" fill="white"/>
<path d="M0 15.341C0 13.2791 1.67147 11.6077 3.73333 11.6077H74.6667C77.6122 11.6077 80 13.9955 80 16.941V59.6685C80 62.614 77.6122 65.0019 74.6667 65.0019H5.33334C2.38782 65.0019 0 62.6141 0 59.6685V15.341Z" fill="#96A0AD"/>
<path d="M45.3519 35.7649L42.0909 32.4964C41.4845 31.9164 40.6784 31.5928 39.8402 31.5928C39.002 31.5928 38.1959 31.9164 37.5895 32.4964L34.3285 35.7649C34.0728 36.0214 33.9291 36.3692 33.9292 36.7318C33.9293 37.0945 34.0731 37.4422 34.329 37.6986C34.5849 37.9549 34.9319 38.0989 35.2937 38.0988C35.6555 38.0987 36.0024 37.9546 36.2582 37.6981L38.4762 35.4751V44.401C38.4762 44.7636 38.6199 45.1113 38.8757 45.3677C39.1315 45.6241 39.4784 45.7682 39.8402 45.7682C40.202 45.7682 40.5489 45.6241 40.8047 45.3677C41.0605 45.1113 41.2043 44.7636 41.2043 44.401V35.4751L43.4222 37.6981C43.5489 37.8251 43.6992 37.9259 43.8647 37.9946C44.0302 38.0634 44.2076 38.0988 44.3867 38.0988C44.5659 38.0989 44.7433 38.0635 44.9088 37.9949C45.0743 37.9262 45.2247 37.8255 45.3514 37.6986C45.4781 37.5716 45.5787 37.4209 45.6472 37.2551C45.7158 37.0892 45.7512 36.9114 45.7512 36.7318C45.7513 36.5523 45.716 36.3745 45.6475 36.2086C45.579 36.0427 45.4785 35.8919 45.3519 35.7649Z" fill="white"/>
</svg>
